<?xml version="1.0" encoding="UTF-8" standalone="no"?>
<svg
   id="visual"
   viewBox="0 0 900 600"
   width="900"
   height="600"
   version="1.1"
   sodipodi:docname="allproducts-bg.svg"
   inkscape:version="1.1.2 (0a00cf5339, 2022-02-04)"
   xmlns:inkscape="http://www.inkscape.org/namespaces/inkscape"
   xmlns:sodipodi="http://sodipodi.sourceforge.net/DTD/sodipodi-0.dtd"
   xmlns="http://www.w3.org/2000/svg"
   xmlns:svg="http://www.w3.org/2000/svg">
  <sodipodi:namedview
     id="namedview259"
     pagecolor="#505050"
     bordercolor="#eeeeee"
     borderopacity="1"
     inkscape:pageshadow="0"
     inkscape:pageopacity="0"
     inkscape:pagecheckerboard="0"
     showgrid="false"
     inkscape:zoom="0.81833333"
     inkscape:cx="450.3055"
     inkscape:cy="300"
     inkscape:window-width="1366"
     inkscape:window-height="700"
     inkscape:window-x="0"
     inkscape:window-y="0"
     inkscape:window-maximized="1"
     inkscape:current-layer="visual" />
  <rect
     x="0"
     y="0"
     width="900"
     height="600"
     fill="#f0f0f0"
     id="rect180" />
  <defs
     id="defs187">
    <linearGradient
       id="grad1_0"
       x1="33.3%"
       y1="100%"
       x2="100%"
       y2="0%">
      <stop
         offset="20%"
         stop-color="#2660a4"
         stop-opacity="1"
         id="stop182" />
      <stop
         offset="80%"
         stop-color="#2660a4"
         stop-opacity="1"
         id="stop184" />
    </linearGradient>
  </defs>
  <defs
     id="defs194">
    <linearGradient
       id="grad1_1"
       x1="33.3%"
       y1="100%"
       x2="100%"
       y2="0%">
      <stop
         offset="20%"
         stop-color="#2660a4"
         stop-opacity="1"
         id="stop189" />
      <stop
         offset="80%"
         stop-color="#758dbd"
         stop-opacity="1"
         id="stop191" />
    </linearGradient>
  </defs>
  <defs
     id="defs201">
    <linearGradient
       id="grad1_2"
       x1="33.3%"
       y1="100%"
       x2="100%"
       y2="0%">
      <stop
         offset="20%"
         stop-color="#b3bdd7"
         stop-opacity="1"
         id="stop196" />
      <stop
         offset="80%"
         stop-color="#758dbd"
         stop-opacity="1"
         id="stop198" />
    </linearGradient>
  </defs>
  <defs
     id="defs208">
    <linearGradient
       id="grad1_3"
       x1="33.3%"
       y1="100%"
       x2="100%"
       y2="0%">
      <stop
         offset="20%"
         stop-color="#b3bdd7"
         stop-opacity="1"
         id="stop203" />
      <stop
         offset="80%"
         stop-color="#f0f0f0"
         stop-opacity="1"
         id="stop205" />
    </linearGradient>
  </defs>
  <defs
     id="defs215">
    <linearGradient
       id="grad2_0"
       x1="0%"
       y1="100%"
       x2="66.7%"
       y2="0%">
      <stop
         offset="20%"
         stop-color="#2660a4"
         stop-opacity="1"
         id="stop210" />
      <stop
         offset="80%"
         stop-color="#2660a4"
         stop-opacity="1"
         id="stop212" />
    </linearGradient>
  </defs>
  <defs
     id="defs222">
    <linearGradient
       id="grad2_1"
       x1="0%"
       y1="100%"
       x2="66.7%"
       y2="0%">
      <stop
         offset="20%"
         stop-color="#758dbd"
         stop-opacity="1"
         id="stop217" />
      <stop
         offset="80%"
         stop-color="#2660a4"
         stop-opacity="1"
         id="stop219" />
    </linearGradient>
  </defs>
  <defs
     id="defs229">
    <linearGradient
       id="grad2_2"
       x1="0%"
       y1="100%"
       x2="66.7%"
       y2="0%">
      <stop
         offset="20%"
         stop-color="#758dbd"
         stop-opacity="1"
         id="stop224" />
      <stop
         offset="80%"
         stop-color="#b3bdd7"
         stop-opacity="1"
         id="stop226" />
    </linearGradient>
  </defs>
  <defs
     id="defs236">
    <linearGradient
       id="grad2_3"
       x1="0%"
       y1="100%"
       x2="66.7%"
       y2="0%">
      <stop
         offset="20%"
         stop-color="#f0f0f0"
         stop-opacity="1"
         id="stop231" />
      <stop
         offset="80%"
         stop-color="#b3bdd7"
         stop-opacity="1"
         id="stop233" />
    </linearGradient>
  </defs>
  <g
     transform="translate(900, 600)"
     id="g246">
    <path
       d="M-540.8 0C-526.3 -43.7 -511.9 -87.3 -504.2 -135.1C-496.6 -182.9 -495.8 -234.8 -468.4 -270.4C-441 -306 -387 -325.4 -339.4 -339.4C-291.8 -353.4 -250.6 -362.2 -214.5 -371.5C-178.4 -380.9 -147.2 -390.9 -112.3 -419.2C-77.4 -447.5 -38.7 -494.2 0 -540.8L0 0Z"
       fill="#d2d6e3"
       id="path238" />
    <path
       d="M-405.6 0C-394.8 -32.7 -383.9 -65.5 -378.2 -101.3C-372.4 -137.2 -371.8 -176.1 -351.3 -202.8C-330.7 -229.5 -290.2 -244 -254.6 -254.6C-218.9 -265.1 -188 -271.6 -160.9 -278.6C-133.8 -285.7 -110.4 -293.2 -84.2 -314.4C-58.1 -335.7 -29 -370.6 0 -405.6L0 0Z"
       fill="#95a5ca"
       id="path240" />
    <path
       d="M-270.4 0C-263.2 -21.8 -255.9 -43.7 -252.1 -67.6C-248.3 -91.4 -247.9 -117.4 -234.2 -135.2C-220.5 -153 -193.5 -162.7 -169.7 -169.7C-145.9 -176.7 -125.3 -181.1 -107.3 -185.8C-89.2 -190.4 -73.6 -195.4 -56.2 -209.6C-38.7 -223.8 -19.4 -247.1 0 -270.4L0 0Z"
       fill="#5376b1"
       id="path242" />
    <path
       d="M-135.2 0C-131.6 -10.9 -128 -21.8 -126.1 -33.8C-124.1 -45.7 -123.9 -58.7 -117.1 -67.6C-110.2 -76.5 -96.7 -81.3 -84.9 -84.9C-73 -88.4 -62.7 -90.5 -53.6 -92.9C-44.6 -95.2 -36.8 -97.7 -28.1 -104.8C-19.4 -111.9 -9.7 -123.5 0 -135.2L0 0Z"
       fill="#2660a4"
       id="path244" />
  </g>
</svg>
