<?xml version="1.0" encoding="UTF-8" standalone="no"?>
<svg
   id="visual"
   viewBox="0 0 900 600"
   width="900"
   height="600"
   version="1.1"
   sodipodi:docname="cart-bg.svg"
   inkscape:version="1.1.2 (0a00cf5339, 2022-02-04)"
   xmlns:inkscape="http://www.inkscape.org/namespaces/inkscape"
   xmlns:sodipodi="http://sodipodi.sourceforge.net/DTD/sodipodi-0.dtd"
   xmlns="http://www.w3.org/2000/svg"
   xmlns:svg="http://www.w3.org/2000/svg">
  <sodipodi:namedview
     id="namedview898"
     pagecolor="#505050"
     bordercolor="#eeeeee"
     borderopacity="1"
     inkscape:pageshadow="0"
     inkscape:pageopacity="0"
     inkscape:pagecheckerboard="0"
     showgrid="false"
     inkscape:zoom="0.81833333"
     inkscape:cx="450.3055"
     inkscape:cy="293.89002"
     inkscape:window-width="1366"
     inkscape:window-height="700"
     inkscape:window-x="0"
     inkscape:window-y="0"
     inkscape:window-maximized="1"
     inkscape:current-layer="g895"
     showguides="false" />
  <rect
     x="0"
     y="0"
     width="900"
     height="600"
     fill="#f0f0f0"
     id="rect819" />
  <defs
     id="defs826">
    <linearGradient
       id="grad1_0"
       x1="33.3%"
       y1="0%"
       x2="100%"
       y2="100%">
      <stop
         offset="20%"
         stop-color="#2660a4"
         stop-opacity="1"
         id="stop821" />
      <stop
         offset="80%"
         stop-color="#2660a4"
         stop-opacity="1"
         id="stop823" />
    </linearGradient>
  </defs>
  <defs
     id="defs833">
    <linearGradient
       id="grad1_1"
       x1="33.3%"
       y1="0%"
       x2="100%"
       y2="100%">
      <stop
         offset="20%"
         stop-color="#2660a4"
         stop-opacity="1"
         id="stop828" />
      <stop
         offset="80%"
         stop-color="#758dbd"
         stop-opacity="1"
         id="stop830" />
    </linearGradient>
  </defs>
  <defs
     id="defs840">
    <linearGradient
       id="grad1_2"
       x1="33.3%"
       y1="0%"
       x2="100%"
       y2="100%">
      <stop
         offset="20%"
         stop-color="#b3bdd7"
         stop-opacity="1"
         id="stop835" />
      <stop
         offset="80%"
         stop-color="#758dbd"
         stop-opacity="1"
         id="stop837" />
    </linearGradient>
  </defs>
  <defs
     id="defs847">
    <linearGradient
       id="grad1_3"
       x1="33.3%"
       y1="0%"
       x2="100%"
       y2="100%">
      <stop
         offset="20%"
         stop-color="#b3bdd7"
         stop-opacity="1"
         id="stop842" />
      <stop
         offset="80%"
         stop-color="#f0f0f0"
         stop-opacity="1"
         id="stop844" />
    </linearGradient>
  </defs>
  <defs
     id="defs854">
    <linearGradient
       id="grad2_0"
       x1="0%"
       y1="0%"
       x2="66.7%"
       y2="100%">
      <stop
         offset="20%"
         stop-color="#2660a4"
         stop-opacity="1"
         id="stop849" />
      <stop
         offset="80%"
         stop-color="#2660a4"
         stop-opacity="1"
         id="stop851" />
    </linearGradient>
  </defs>
  <defs
     id="defs861">
    <linearGradient
       id="grad2_1"
       x1="0%"
       y1="0%"
       x2="66.7%"
       y2="100%">
      <stop
         offset="20%"
         stop-color="#758dbd"
         stop-opacity="1"
         id="stop856" />
      <stop
         offset="80%"
         stop-color="#2660a4"
         stop-opacity="1"
         id="stop858" />
    </linearGradient>
  </defs>
  <defs
     id="defs868">
    <linearGradient
       id="grad2_2"
       x1="0%"
       y1="0%"
       x2="66.7%"
       y2="100%">
      <stop
         offset="20%"
         stop-color="#758dbd"
         stop-opacity="1"
         id="stop863" />
      <stop
         offset="80%"
         stop-color="#b3bdd7"
         stop-opacity="1"
         id="stop865" />
    </linearGradient>
  </defs>
  <defs
     id="defs875">
    <linearGradient
       id="grad2_3"
       x1="0%"
       y1="0%"
       x2="66.7%"
       y2="100%">
      <stop
         offset="20%"
         stop-color="#f0f0f0"
         stop-opacity="1"
         id="stop870" />
      <stop
         offset="80%"
         stop-color="#b3bdd7"
         stop-opacity="1"
         id="stop872" />
    </linearGradient>
  </defs>
  <g
     transform="translate(0, 600)"
     id="g895">
    <g
       id="g1203"
       transform="matrix(-1,0,0,1,1259.2,0)">
      <path
         d="m 359.2,-540.8 c 44,13.9 88,27.8 134.1,40.5 46.1,12.6 94.3,23.9 118.9,62.1 24.6,38.2 25.6,103.1 44.7,140.5 19.1,37.4 56.4,47.1 101.5,67.2 45.2,20.1 98.3,50.4 123.2,90.5 24.9,40.2 21.7,90.1 18.4,140 H 359.2 Z"
         fill="#d2d6e3"
         id="path887" />
      <path
         d="m 359.2,-405.6 c 33,10.4 66,20.9 100.6,30.3 34.5,9.5 70.7,18 89.1,46.6 18.5,28.7 19.2,77.4 33.6,105.4 14.3,28.1 42.3,35.4 76.1,50.4 33.9,15.1 73.7,37.8 92.4,67.9 18.7,30.1 16.3,67.6 13.8,105 H 359.2 Z"
         fill="#95a5ca"
         id="path889" />
      <path
         d="m 359.2,-270.4 c 22,6.9 44,13.9 67,20.2 23.1,6.3 47.2,12 59.5,31.1 12.3,19.1 12.8,51.6 22.3,70.3 9.6,18.6 28.2,23.5 50.8,33.5 22.6,10.1 49.1,25.2 61.6,45.3 12.5,20.1 10.8,45 9.2,70 H 359.2 Z"
         fill="#5376b1"
         id="path891" />
      <path
         d="m 359.2,-135.2 c 11,3.5 22,7 33.5,10.1 11.5,3.2 23.6,6 29.7,15.5 6.2,9.6 6.4,25.8 11.2,35.2 4.8,9.3 14.1,11.8 25.4,16.8 11.3,5 24.6,12.6 30.8,22.6 6.2,10 5.4,22.5 4.6,35 H 359.2 Z"
         fill="#2660a4"
         id="path893" />
    </g>
  </g>
</svg>
