<?xml version="1.0" encoding="UTF-8" standalone="no"?>
<svg
   id="visual"
   viewBox="0 0 900 600"
   width="900"
   height="600"
   version="1.1"
   sodipodi:docname="categories.svg"
   inkscape:version="1.1.2 (0a00cf5339, 2022-02-04)"
   xmlns:inkscape="http://www.inkscape.org/namespaces/inkscape"
   xmlns:sodipodi="http://sodipodi.sourceforge.net/DTD/sodipodi-0.dtd"
   xmlns="http://www.w3.org/2000/svg"
   xmlns:svg="http://www.w3.org/2000/svg">
  <sodipodi:namedview
     id="namedview898"
     pagecolor="#505050"
     bordercolor="#eeeeee"
     borderopacity="1"
     inkscape:pageshadow="0"
     inkscape:pageopacity="0"
     inkscape:pagecheckerboard="0"
     showgrid="false"
     inkscape:zoom="0.81833333"
     inkscape:cx="450.3055"
     inkscape:cy="300"
     inkscape:window-width="1366"
     inkscape:window-height="700"
     inkscape:window-x="0"
     inkscape:window-y="0"
     inkscape:window-maximized="1"
     inkscape:current-layer="visual" />
  <rect
     x="0"
     y="0"
     width="900"
     height="600"
     fill="#f0f0f0"
     id="rect819" />
  <defs
     id="defs826">
    <linearGradient
       id="grad1_0"
       x1="33.3%"
       y1="0%"
       x2="100%"
       y2="100%">
      <stop
         offset="20%"
         stop-color="#2660a4"
         stop-opacity="1"
         id="stop821" />
      <stop
         offset="80%"
         stop-color="#2660a4"
         stop-opacity="1"
         id="stop823" />
    </linearGradient>
  </defs>
  <defs
     id="defs833">
    <linearGradient
       id="grad1_1"
       x1="33.3%"
       y1="0%"
       x2="100%"
       y2="100%">
      <stop
         offset="20%"
         stop-color="#2660a4"
         stop-opacity="1"
         id="stop828" />
      <stop
         offset="80%"
         stop-color="#758dbd"
         stop-opacity="1"
         id="stop830" />
    </linearGradient>
  </defs>
  <defs
     id="defs840">
    <linearGradient
       id="grad1_2"
       x1="33.3%"
       y1="0%"
       x2="100%"
       y2="100%">
      <stop
         offset="20%"
         stop-color="#b3bdd7"
         stop-opacity="1"
         id="stop835" />
      <stop
         offset="80%"
         stop-color="#758dbd"
         stop-opacity="1"
         id="stop837" />
    </linearGradient>
  </defs>
  <defs
     id="defs847">
    <linearGradient
       id="grad1_3"
       x1="33.3%"
       y1="0%"
       x2="100%"
       y2="100%">
      <stop
         offset="20%"
         stop-color="#b3bdd7"
         stop-opacity="1"
         id="stop842" />
      <stop
         offset="80%"
         stop-color="#f0f0f0"
         stop-opacity="1"
         id="stop844" />
    </linearGradient>
  </defs>
  <defs
     id="defs854">
    <linearGradient
       id="grad2_0"
       x1="0%"
       y1="0%"
       x2="66.7%"
       y2="100%">
      <stop
         offset="20%"
         stop-color="#2660a4"
         stop-opacity="1"
         id="stop849" />
      <stop
         offset="80%"
         stop-color="#2660a4"
         stop-opacity="1"
         id="stop851" />
    </linearGradient>
  </defs>
  <defs
     id="defs861">
    <linearGradient
       id="grad2_1"
       x1="0%"
       y1="0%"
       x2="66.7%"
       y2="100%">
      <stop
         offset="20%"
         stop-color="#758dbd"
         stop-opacity="1"
         id="stop856" />
      <stop
         offset="80%"
         stop-color="#2660a4"
         stop-opacity="1"
         id="stop858" />
    </linearGradient>
  </defs>
  <defs
     id="defs868">
    <linearGradient
       id="grad2_2"
       x1="0%"
       y1="0%"
       x2="66.7%"
       y2="100%">
      <stop
         offset="20%"
         stop-color="#758dbd"
         stop-opacity="1"
         id="stop863" />
      <stop
         offset="80%"
         stop-color="#b3bdd7"
         stop-opacity="1"
         id="stop865" />
    </linearGradient>
  </defs>
  <defs
     id="defs875">
    <linearGradient
       id="grad2_3"
       x1="0%"
       y1="0%"
       x2="66.7%"
       y2="100%">
      <stop
         offset="20%"
         stop-color="#f0f0f0"
         stop-opacity="1"
         id="stop870" />
      <stop
         offset="80%"
         stop-color="#b3bdd7"
         stop-opacity="1"
         id="stop872" />
    </linearGradient>
  </defs>
  <g
     transform="translate(0, 600)"
     id="g895">
    <path
       d="M0 -540.8C44 -526.9 88 -513 134.1 -500.3C180.2 -487.7 228.4 -476.4 253 -438.2C277.6 -400 278.6 -335.1 297.7 -297.7C316.8 -260.3 354.1 -250.6 399.2 -230.5C444.4 -210.4 497.5 -180.1 522.4 -140C547.3 -99.8 544.1 -49.9 540.8 0L0 0Z"
       fill="#d2d6e3"
       id="path887" />
    <path
       d="M0 -405.6C33 -395.2 66 -384.7 100.6 -375.3C135.1 -365.8 171.3 -357.3 189.7 -328.7C208.2 -300 208.9 -251.3 223.3 -223.3C237.6 -195.2 265.6 -187.9 299.4 -172.9C333.3 -157.8 373.1 -135.1 391.8 -105C410.5 -74.9 408.1 -37.4 405.6 0L0 0Z"
       fill="#95a5ca"
       id="path889" />
    <path
       d="M0 -270.4C22 -263.5 44 -256.5 67 -250.2C90.1 -243.9 114.2 -238.2 126.5 -219.1C138.8 -200 139.3 -167.5 148.8 -148.8C158.4 -130.2 177 -125.3 199.6 -115.3C222.2 -105.2 248.7 -90.1 261.2 -70C273.7 -49.9 272 -25 270.4 0L0 0Z"
       fill="#5376b1"
       id="path891" />
    <path
       d="M0 -135.2C11 -131.7 22 -128.2 33.5 -125.1C45 -121.9 57.1 -119.1 63.2 -109.6C69.4 -100 69.6 -83.8 74.4 -74.4C79.2 -65.1 88.5 -62.6 99.8 -57.6C111.1 -52.6 124.4 -45 130.6 -35C136.8 -25 136 -12.5 135.2 0L0 0Z"
       fill="#2660a4"
       id="path893" />
  </g>
</svg>
