<?xml version="1.0" encoding="UTF-8" standalone="no"?>
<svg
   id="visual"
   viewBox="0 0 900 600"
   width="900"
   height="600"
   version="1.1"
   sodipodi:docname="product-bg.svg"
   inkscape:version="1.1.2 (0a00cf5339, 2022-02-04)"
   xmlns:inkscape="http://www.inkscape.org/namespaces/inkscape"
   xmlns:sodipodi="http://sodipodi.sourceforge.net/DTD/sodipodi-0.dtd"
   xmlns="http://www.w3.org/2000/svg"
   xmlns:svg="http://www.w3.org/2000/svg">
  <sodipodi:namedview
     id="namedview215"
     pagecolor="#505050"
     bordercolor="#eeeeee"
     borderopacity="1"
     inkscape:pageshadow="0"
     inkscape:pageopacity="0"
     inkscape:pagecheckerboard="0"
     showgrid="false"
     inkscape:zoom="1.405"
     inkscape:cx="450.17794"
     inkscape:cy="300"
     inkscape:window-width="1920"
     inkscape:window-height="1052"
     inkscape:window-x="1366"
     inkscape:window-y="0"
     inkscape:window-maximized="1"
     inkscape:current-layer="visual" />
  <rect
     x="0"
     y="0"
     width="900"
     height="600"
     fill="#f0f0f0"
     id="rect136" />
  <defs
     id="defs143">
    <linearGradient
       id="grad1_0"
       x1="33.3%"
       y1="0%"
       x2="100%"
       y2="100%">
      <stop
         offset="20%"
         stop-color="#2660a4"
         stop-opacity="1"
         id="stop138" />
      <stop
         offset="80%"
         stop-color="#2660a4"
         stop-opacity="1"
         id="stop140" />
    </linearGradient>
  </defs>
  <defs
     id="defs150">
    <linearGradient
       id="grad1_1"
       x1="33.3%"
       y1="0%"
       x2="100%"
       y2="100%">
      <stop
         offset="20%"
         stop-color="#2660a4"
         stop-opacity="1"
         id="stop145" />
      <stop
         offset="80%"
         stop-color="#758dbd"
         stop-opacity="1"
         id="stop147" />
    </linearGradient>
  </defs>
  <defs
     id="defs157">
    <linearGradient
       id="grad1_2"
       x1="33.3%"
       y1="0%"
       x2="100%"
       y2="100%">
      <stop
         offset="20%"
         stop-color="#b3bdd7"
         stop-opacity="1"
         id="stop152" />
      <stop
         offset="80%"
         stop-color="#758dbd"
         stop-opacity="1"
         id="stop154" />
    </linearGradient>
  </defs>
  <defs
     id="defs164">
    <linearGradient
       id="grad1_3"
       x1="33.3%"
       y1="0%"
       x2="100%"
       y2="100%">
      <stop
         offset="20%"
         stop-color="#b3bdd7"
         stop-opacity="1"
         id="stop159" />
      <stop
         offset="80%"
         stop-color="#f0f0f0"
         stop-opacity="1"
         id="stop161" />
    </linearGradient>
  </defs>
  <defs
     id="defs171">
    <linearGradient
       id="grad2_0"
       x1="0%"
       y1="0%"
       x2="66.7%"
       y2="100%">
      <stop
         offset="20%"
         stop-color="#2660a4"
         stop-opacity="1"
         id="stop166" />
      <stop
         offset="80%"
         stop-color="#2660a4"
         stop-opacity="1"
         id="stop168" />
    </linearGradient>
  </defs>
  <defs
     id="defs178">
    <linearGradient
       id="grad2_1"
       x1="0%"
       y1="0%"
       x2="66.7%"
       y2="100%">
      <stop
         offset="20%"
         stop-color="#758dbd"
         stop-opacity="1"
         id="stop173" />
      <stop
         offset="80%"
         stop-color="#2660a4"
         stop-opacity="1"
         id="stop175" />
    </linearGradient>
  </defs>
  <defs
     id="defs185">
    <linearGradient
       id="grad2_2"
       x1="0%"
       y1="0%"
       x2="66.7%"
       y2="100%">
      <stop
         offset="20%"
         stop-color="#758dbd"
         stop-opacity="1"
         id="stop180" />
      <stop
         offset="80%"
         stop-color="#b3bdd7"
         stop-opacity="1"
         id="stop182" />
    </linearGradient>
  </defs>
  <defs
     id="defs192">
    <linearGradient
       id="grad2_3"
       x1="0%"
       y1="0%"
       x2="66.7%"
       y2="100%">
      <stop
         offset="20%"
         stop-color="#f0f0f0"
         stop-opacity="1"
         id="stop187" />
      <stop
         offset="80%"
         stop-color="#b3bdd7"
         stop-opacity="1"
         id="stop189" />
    </linearGradient>
  </defs>
  <g
     transform="translate(0, 600)"
     id="g212">
    <path
       d="M0 -540.8C35.6 -498.8 71.3 -456.8 121.6 -454C172 -451.2 237.1 -487.7 270.4 -468.4C303.8 -449.1 305.4 -374 328.8 -328.8C352.2 -283.6 397.5 -268.1 407 -235C416.5 -201.9 390.3 -151.1 406.7 -109C423 -66.8 481.9 -33.4 540.8 0L0 0Z"
       fill="#d2d6e3"
       id="path204" />
    <path
       d="M0 -405.6C26.7 -374.1 53.5 -342.6 91.2 -340.5C129 -338.4 177.8 -365.7 202.8 -351.3C227.8 -336.8 229 -280.5 246.6 -246.6C264.2 -212.7 298.1 -201.1 305.3 -176.3C312.4 -151.4 292.7 -113.3 305 -81.7C317.2 -50.1 361.4 -25.1 405.6 0L0 0Z"
       fill="#95a5ca"
       id="path206" />
    <path
       d="M0 -270.4C17.8 -249.4 35.6 -228.4 60.8 -227C86 -225.6 118.5 -243.8 135.2 -234.2C151.9 -224.5 152.7 -187 164.4 -164.4C176.1 -141.8 198.8 -134.1 203.5 -117.5C208.3 -100.9 195.2 -75.5 203.3 -54.5C211.5 -33.4 241 -16.7 270.4 0L0 0Z"
       fill="#5376b1"
       id="path208" />
    <path
       d="M0 -135.2C8.9 -124.7 17.8 -114.2 30.4 -113.5C43 -112.8 59.3 -121.9 67.6 -117.1C75.9 -112.3 76.3 -93.5 82.2 -82.2C88.1 -70.9 99.4 -67 101.8 -58.8C104.1 -50.5 97.6 -37.8 101.7 -27.2C105.7 -16.7 120.5 -8.4 135.2 0L0 0Z"
       fill="#2660a4"
       id="path210" />
  </g>
</svg>
